<svg xmlns="http://www.w3.org/2000/svg" viewBox="0 0 120 120"><defs>
 <linearGradient id="base" x1="0" y1="0" x2="0" y2="1"><stop offset="0" stop-color="#ffffff"/><stop offset="1" stop-color="#cfd8e2"/></linearGradient>
 <linearGradient id="gold" x1="0" y1="0" x2="0" y2="1"><stop offset="0" stop-color="#ffe089"/><stop offset="1" stop-color="#a9760f"/></linearGradient>
 <linearGradient id="tr" x1="0" y1="0" x2="0" y2="1"><stop offset="0" stop-color="#e6ab26"/><stop offset="1" stop-color="#a9760f"/></linearGradient>
 <linearGradient id="cape" x1="0" y1="0" x2="0" y2="1"><stop offset="0" stop-color="#274a95"/><stop offset="1" stop-color="#39454f"/></linearGradient>
 <radialGradient id="gem" cx="0.5" cy="0.4" r="0.7"><stop offset="0" stop-color="#eafaff"/><stop offset="0.5" stop-color="#5ad0ff"/><stop offset="1" stop-color="#2a5f8a"/></radialGradient>
</defs><path d="M52,20 C40,22 34,34 36,50 C30,54 26,64 30,72 C34,74 40,72 44,70 C46,84 56,96 70,96 C84,96 92,82 92,64 C92,44 84,26 66,20 C62,19 56,19 52,20 Z" fill="#274a95" stroke="#39454f" stroke-width="3.2"/><path d="M60,18 C70,14 82,18 88,28 C84,26 78,26 74,28 C82,30 88,38 88,48 C82,42 74,40 68,42 C74,30 66,22 60,20 Z" fill="#39454f" opacity=".85"/><path d="M64,22 C64,10 58,6 52,8 C60,12 60,18 62,24 Z" fill="#f1c40f" stroke="#39454f" stroke-width="2"/><path d="M52,26 C46,30 44,42 47,54 C55,58 66,56 70,50 C72,38 68,28 60,25 C57,24 54,24 52,26 Z" fill="url(#base)" stroke="#39454f" stroke-width="2.8" opacity=".95"/><path d="M52,26 C46,30 44,42 47,54" fill="none" stroke="url(#gold)" stroke-width="2.6"/><circle cx="70" cy="46" r="3" fill="#39454f"/><ellipse cx="34" cy="66" rx="2.4" ry="3" fill="#39454f"/><path d="M56,32 l3.2,4.0 l-3.2,4.0 l-3.2,-4.0 Z" fill="url(#gem)" stroke="#a9760f" stroke-width="1.4"/><path d="M22,30 l1.4,3 3,1.4 -3,1.4 -1.4,3 -1.4,-3 -3,-1.4 3,-1.4 Z" fill="#fff6c8"/><path d="M98,40 l1,2.2 2.2,1 -2.2,1 -1,2.2 -1,-2.2 -2.2,-1 2.2,-1 Z" fill="#fff6c8"/></svg>
