<svg xmlns="http://www.w3.org/2000/svg" viewBox="0 0 120 120"><defs>
 <linearGradient id="base" x1="0" y1="0" x2="0" y2="1"><stop offset="0" stop-color="#f2f6fa"/><stop offset="1" stop-color="#b7c1c9"/></linearGradient>
 <linearGradient id="gold" x1="0" y1="0" x2="0" y2="1"><stop offset="0" stop-color="#ffe089"/><stop offset="1" stop-color="#7d5232"/></linearGradient>
 <linearGradient id="tr" x1="0" y1="0" x2="0" y2="1"><stop offset="0" stop-color="#b57e4f"/><stop offset="1" stop-color="#7d5232"/></linearGradient>
 <linearGradient id="cape" x1="0" y1="0" x2="0" y2="1"><stop offset="0" stop-color="#7d6b58"/><stop offset="1" stop-color="#39454f"/></linearGradient>
 <radialGradient id="gem" cx="0.5" cy="0.4" r="0.7"><stop offset="0" stop-color="#eafaff"/><stop offset="0.5" stop-color="#8899aa"/><stop offset="1" stop-color="#2a5f8a"/></radialGradient>
</defs><circle cx="60" cy="22" r="4" fill="#b57e4f" stroke="#39454f" stroke-width="2"/><path d="M30,66 C30,38 45,25 60,25 C75,25 90,38 90,66 L90,73 C90,80 84,84 75,84 L45,84 C36,84 30,80 30,73 Z" fill="url(#base)" stroke="#39454f" stroke-width="3.4"/><path d="M30,66 C30,38 45,25 60,25 C75,25 90,38 90,66" fill="none" stroke="url(#tr)" stroke-width="3"/><rect x="36" y="50" width="48" height="9" rx="3" fill="#5a6670" stroke="#39454f" stroke-width="2"/><rect x="56.5" y="50" width="7" height="30" rx="3" fill="url(#base)" stroke="#39454f" stroke-width="2.4"/><circle cx="44" cy="70" r="1.7" fill="#5a6670"/><circle cx="50" cy="70" r="1.7" fill="#5a6670"/><circle cx="70" cy="70" r="1.7" fill="#5a6670"/><circle cx="76" cy="70" r="1.7" fill="#5a6670"/></svg>
