<svg xmlns="http://www.w3.org/2000/svg" viewBox="0 0 120 120"><defs>
 <linearGradient id="base" x1="0" y1="0" x2="0" y2="1"><stop offset="0" stop-color="#f4f8fb"/><stop offset="1" stop-color="#bcc6ce"/></linearGradient>
 <linearGradient id="gold" x1="0" y1="0" x2="0" y2="1"><stop offset="0" stop-color="#ffe089"/><stop offset="1" stop-color="#2c4d86"/></linearGradient>
 <linearGradient id="tr" x1="0" y1="0" x2="0" y2="1"><stop offset="0" stop-color="#3a63ab"/><stop offset="1" stop-color="#2c4d86"/></linearGradient>
 <linearGradient id="cape" x1="0" y1="0" x2="0" y2="1"><stop offset="0" stop-color="#39548f"/><stop offset="1" stop-color="#39454f"/></linearGradient>
 <radialGradient id="gem" cx="0.5" cy="0.4" r="0.7"><stop offset="0" stop-color="#eafaff"/><stop offset="0.5" stop-color="#8899aa"/><stop offset="1" stop-color="#2a5f8a"/></radialGradient>
</defs><path d="M60,25 C58,12 52,8 46,10 C54,14 56,20 58,26 Z" fill="#3a63ab" stroke="#39454f" stroke-width="2"/><path d="M30,66 C30,38 45,25 60,25 C75,25 90,38 90,66 L90,73 C90,80 84,84 75,84 L45,84 C36,84 30,80 30,73 Z" fill="url(#base)" stroke="#39454f" stroke-width="3.4"/><path d="M30,66 C30,38 45,25 60,25 C75,25 90,38 90,66" fill="none" stroke="url(#tr)" stroke-width="3"/><rect x="36" y="50" width="48" height="9" rx="3" fill="#5a6670" stroke="#39454f" stroke-width="2"/><rect x="56.5" y="50" width="7" height="30" rx="3" fill="url(#base)" stroke="#39454f" stroke-width="2.4"/><circle cx="44" cy="70" r="1.7" fill="#5a6670"/><circle cx="50" cy="70" r="1.7" fill="#5a6670"/><circle cx="70" cy="70" r="1.7" fill="#5a6670"/><circle cx="76" cy="70" r="1.7" fill="#5a6670"/></svg>
