<svg xmlns="http://www.w3.org/2000/svg" viewBox="0 0 120 120"><defs>
 <linearGradient id="base" x1="0" y1="0" x2="0" y2="1"><stop offset="0" stop-color="#ffffff"/><stop offset="1" stop-color="#cfd8e2"/></linearGradient>
 <linearGradient id="gold" x1="0" y1="0" x2="0" y2="1"><stop offset="0" stop-color="#ffe089"/><stop offset="1" stop-color="#a9760f"/></linearGradient>
 <linearGradient id="tr" x1="0" y1="0" x2="0" y2="1"><stop offset="0" stop-color="#e6ab26"/><stop offset="1" stop-color="#a9760f"/></linearGradient>
 <linearGradient id="cape" x1="0" y1="0" x2="0" y2="1"><stop offset="0" stop-color="#274a95"/><stop offset="1" stop-color="#39454f"/></linearGradient>
 <radialGradient id="gem" cx="0.5" cy="0.4" r="0.7"><stop offset="0" stop-color="#eafaff"/><stop offset="0.5" stop-color="#5ad0ff"/><stop offset="1" stop-color="#2a5f8a"/></radialGradient>
</defs><path d="M60,20 C74,22 88,25 88,25 C88,60 76,86 60,99 C44,86 32,60 32,25 C32,25 46,22 60,20 Z" fill="url(#base)" stroke="#39454f" stroke-width="3.4"/><path d="M60,20 C74,22 88,25 88,25 C88,60 76,86 60,99 C44,86 32,60 32,25 C32,25 46,22 60,20 Z" fill="none" stroke="url(#gold)" stroke-width="3.4"/><path d="M60,26 L60,92" stroke="#e6ab26" stroke-width="2" opacity=".4"/><path d="M60,38 l11,13 -11,13 -11,-13 Z" fill="url(#gold)" stroke="#39454f" stroke-width="2.2"/><path d="M60,38 l4.8,6.0 l-4.8,6.0 l-4.8,-6.0 Z" fill="url(#gem)" stroke="#a9760f" stroke-width="1.4"/><path d="M22,30 l1.4,3 3,1.4 -3,1.4 -1.4,3 -1.4,-3 -3,-1.4 3,-1.4 Z" fill="#fff6c8"/><path d="M98,40 l1,2.2 2.2,1 -2.2,1 -1,2.2 -1,-2.2 -2.2,-1 2.2,-1 Z" fill="#fff6c8"/></svg>
