<svg xmlns="http://www.w3.org/2000/svg" viewBox="0 0 120 120"><defs>
 <linearGradient id="base" x1="0" y1="0" x2="0" y2="1"><stop offset="0" stop-color="#f6fafd"/><stop offset="1" stop-color="#c2ccd4"/></linearGradient>
 <linearGradient id="gold" x1="0" y1="0" x2="0" y2="1"><stop offset="0" stop-color="#ffe089"/><stop offset="1" stop-color="#a9760f"/></linearGradient>
 <linearGradient id="tr" x1="0" y1="0" x2="0" y2="1"><stop offset="0" stop-color="#e0a72b"/><stop offset="1" stop-color="#a9760f"/></linearGradient>
 <linearGradient id="cape" x1="0" y1="0" x2="0" y2="1"><stop offset="0" stop-color="#8a1f2b"/><stop offset="1" stop-color="#39454f"/></linearGradient>
 <radialGradient id="gem" cx="0.5" cy="0.4" r="0.7"><stop offset="0" stop-color="#eafaff"/><stop offset="0.5" stop-color="#2f4f8a"/><stop offset="1" stop-color="#2a5f8a"/></radialGradient>
</defs><path d="M60,20 C74,22 88,25 88,25 C88,60 76,86 60,99 C44,86 32,60 32,25 C32,25 46,22 60,20 Z" fill="url(#base)" stroke="#39454f" stroke-width="3.4"/><path d="M60,20 C74,22 88,25 88,25 C88,60 76,86 60,99 C44,86 32,60 32,25 C32,25 46,22 60,20 Z" fill="none" stroke="url(#gold)" stroke-width="3.4"/><path d="M60,26 L60,92" stroke="#e0a72b" stroke-width="2" opacity=".4"/><path d="M60,40 l2.6,5.4 6,.8 -4.3,4.2 1,6 -5.3,-2.8 -5.3,2.8 1,-6 -4.3,-4.2 6,-.8 Z" fill="url(#gold)" stroke="#39454f" stroke-width="2"/></svg>
