<svg xmlns="http://www.w3.org/2000/svg" viewBox="0 0 120 120"><defs>
 <linearGradient id="base" x1="0" y1="0" x2="0" y2="1"><stop offset="0" stop-color="#f4f8fb"/><stop offset="1" stop-color="#bcc6ce"/></linearGradient>
 <linearGradient id="gold" x1="0" y1="0" x2="0" y2="1"><stop offset="0" stop-color="#ffe089"/><stop offset="1" stop-color="#2c4d86"/></linearGradient>
 <linearGradient id="tr" x1="0" y1="0" x2="0" y2="1"><stop offset="0" stop-color="#3a63ab"/><stop offset="1" stop-color="#2c4d86"/></linearGradient>
 <linearGradient id="cape" x1="0" y1="0" x2="0" y2="1"><stop offset="0" stop-color="#39548f"/><stop offset="1" stop-color="#39454f"/></linearGradient>
 <radialGradient id="gem" cx="0.5" cy="0.4" r="0.7"><stop offset="0" stop-color="#eafaff"/><stop offset="0.5" stop-color="#8899aa"/><stop offset="1" stop-color="#2a5f8a"/></radialGradient>
</defs><path d="M60,20 C74,22 88,25 88,25 C88,60 76,86 60,99 C44,86 32,60 32,25 C32,25 46,22 60,20 Z" fill="url(#base)" stroke="#39454f" stroke-width="3.4"/><path d="M60,20 C74,22 88,25 88,25 C88,60 76,86 60,99 C44,86 32,60 32,25 C32,25 46,22 60,20 Z" fill="none" stroke="url(#tr)" stroke-width="3.4"/><path d="M60,26 L60,92" stroke="#4a78c8" stroke-width="2" opacity=".4"/><circle cx="60" cy="52" r="11" fill="#4a78c8" stroke="#39454f" stroke-width="2.6"/><circle cx="60" cy="52" r="4" fill="#dbe7f7"/></svg>
