<svg xmlns="http://www.w3.org/2000/svg" viewBox="0 0 120 120"><defs>
 <linearGradient id="base" x1="0" y1="0" x2="0" y2="1"><stop offset="0" stop-color="#eef3fb"/><stop offset="1" stop-color="#aeb9cb"/></linearGradient>
 <linearGradient id="gold" x1="0" y1="0" x2="0" y2="1"><stop offset="0" stop-color="#ffe089"/><stop offset="1" stop-color="#a9760f"/></linearGradient>
 <linearGradient id="tr" x1="0" y1="0" x2="0" y2="1"><stop offset="0" stop-color="#e0a72b"/><stop offset="1" stop-color="#a9760f"/></linearGradient>
 <linearGradient id="cape" x1="0" y1="0" x2="0" y2="1"><stop offset="0" stop-color="#26468a"/><stop offset="1" stop-color="#39454f"/></linearGradient>
 <radialGradient id="gem" cx="0.5" cy="0.4" r="0.7"><stop offset="0" stop-color="#eafaff"/><stop offset="0.5" stop-color="#3a63ab"/><stop offset="1" stop-color="#2a5f8a"/></radialGradient>
</defs><path d="M60,14 L66,66 L60,74 L54,66 Z" fill="url(#base)" stroke="#39454f" stroke-width="3"/><path d="M60,20 L60,66" stroke="#e0a72b" stroke-width="2" opacity=".5"/><path d="M40,70 L80,70 L76,77 L44,77 Z" fill="url(#gold)" stroke="#39454f" stroke-width="2.6"/><rect x="55.5" y="77" width="9" height="20" rx="2.5" fill="#26468a" stroke="#39454f" stroke-width="2.4"/><path d="M56,80 L64,83" stroke="#39454f" stroke-width="1.4" opacity=".6"/><path d="M56,85 L64,88" stroke="#39454f" stroke-width="1.4" opacity=".6"/><path d="M56,90 L64,93" stroke="#39454f" stroke-width="1.4" opacity=".6"/><circle cx="60" cy="101" r="6" fill="url(#gold)" stroke="#39454f" stroke-width="2.4"/><circle cx="60" cy="101" r="2.6" fill="url(#gem)"/></svg>
