<svg xmlns="http://www.w3.org/2000/svg" viewBox="0 0 120 120"><defs>
 <linearGradient id="base" x1="0" y1="0" x2="0" y2="1"><stop offset="0" stop-color="#f4f8fb"/><stop offset="1" stop-color="#bcc6ce"/></linearGradient>
 <linearGradient id="gold" x1="0" y1="0" x2="0" y2="1"><stop offset="0" stop-color="#ffe089"/><stop offset="1" stop-color="#2c4d86"/></linearGradient>
 <linearGradient id="tr" x1="0" y1="0" x2="0" y2="1"><stop offset="0" stop-color="#3a63ab"/><stop offset="1" stop-color="#2c4d86"/></linearGradient>
 <linearGradient id="cape" x1="0" y1="0" x2="0" y2="1"><stop offset="0" stop-color="#39548f"/><stop offset="1" stop-color="#39454f"/></linearGradient>
 <radialGradient id="gem" cx="0.5" cy="0.4" r="0.7"><stop offset="0" stop-color="#eafaff"/><stop offset="0.5" stop-color="#8899aa"/><stop offset="1" stop-color="#2a5f8a"/></radialGradient>
</defs><rect x="44" y="30" width="7" height="16" rx="3.2" fill="url(#base)" stroke="#39454f" stroke-width="2.4"/><rect x="53" y="30" width="7" height="16" rx="3.2" fill="url(#base)" stroke="#39454f" stroke-width="2.4"/><rect x="62" y="30" width="7" height="16" rx="3.2" fill="url(#base)" stroke="#39454f" stroke-width="2.4"/><rect x="71" y="30" width="7" height="16" rx="3.2" fill="url(#base)" stroke="#39454f" stroke-width="2.4"/><path d="M40,58 C30,56 28,48 33,44 C38,44 42,50 43,56 Z" fill="url(#base)" stroke="#39454f" stroke-width="2.4"/><path d="M40,66 C40,50 46,40 60,40 C74,40 80,50 80,66 Z" fill="url(#base)" stroke="#39454f" stroke-width="3.2"/><path d="M38,86 L82,86 L86,66 L34,66 Z" fill="url(#tr)" stroke="#39454f" stroke-width="3"/><circle cx="47.5" cy="47" r="2" fill="#4a78c8" stroke="#39454f" stroke-width="1"/><circle cx="56.5" cy="47" r="2" fill="#4a78c8" stroke="#39454f" stroke-width="1"/><circle cx="65.5" cy="47" r="2" fill="#4a78c8" stroke="#39454f" stroke-width="1"/><circle cx="74.5" cy="47" r="2" fill="#4a78c8" stroke="#39454f" stroke-width="1"/></svg>
