<svg xmlns="http://www.w3.org/2000/svg" viewBox="0 0 120 120">
  <defs>
    <linearGradient id="steel1" x1="0" y1="0" x2="0" y2="1">
      <stop offset="0" stop-color="#f2f6fa"/><stop offset="1" stop-color="#b7c1c9"/>
    </linearGradient>
  </defs>
  <!-- correas de cuero -->
  <rect x="41" y="17" width="9" height="32" rx="4.5" fill="#b57e4f" stroke="#7d5232" stroke-width="2.4"/>
  <rect x="70" y="17" width="9" height="32" rx="4.5" fill="#b57e4f" stroke="#7d5232" stroke-width="2.4"/>
  <!-- cuerpo -->
  <path d="M34,42 C34,28 46,24 60,24 C74,24 86,28 86,42 L88,74 C88,98 74,107 60,107 C46,107 32,98 32,74 Z"
        fill="url(#steel1)" stroke="#39454f" stroke-width="3.4"/>
  <!-- cuello -->
  <ellipse cx="60" cy="33" rx="11" ry="6" fill="#8b959d" stroke="#39454f" stroke-width="2.6"/>
  <!-- cresta central -->
  <path d="M60,41 L60,99" stroke="#9aa7b0" stroke-width="3" fill="none"/>
  <!-- brillos pectorales -->
  <path d="M43,54 C49,49 55,49 58,55" stroke="#ffffff" stroke-width="3" fill="none" stroke-linecap="round" opacity=".75"/>
  <path d="M77,54 C71,49 65,49 62,55" stroke="#ffffff" stroke-width="3" fill="none" stroke-linecap="round" opacity=".75"/>
  <!-- cinturón -->
  <rect x="33" y="86" width="54" height="11" rx="3.5" fill="#b57e4f" stroke="#7d5232" stroke-width="2.6"/>
  <rect x="54" y="85.5" width="12" height="12" rx="2.5" fill="#d9b25f" stroke="#7d5232" stroke-width="2.2"/>
  <!-- remaches -->
  <circle cx="40" cy="47" r="2.6" fill="#8b959d" stroke="#39454f" stroke-width="1.3"/>
  <circle cx="80" cy="47" r="2.6" fill="#8b959d" stroke="#39454f" stroke-width="1.3"/>
  <circle cx="39" cy="78" r="2.6" fill="#8b959d" stroke="#39454f" stroke-width="1.3"/>
  <circle cx="81" cy="78" r="2.6" fill="#8b959d" stroke="#39454f" stroke-width="1.3"/>
</svg>
